o 
usemtl __DEFAULT
v 1 1 0
v 0.9239000082015991 1 0.38269999623298645
v 0.9239000082015991 0 0.38269999623298645
v 1 1 0
v 0.9239000082015991 0 0.38269999623298645
v 1 0 0
v 0.9239000082015991 1 0.38269999623298645
v 0.707099974155426 1 0.707099974155426
v 0.707099974155426 0 0.707099974155426
v 0.9239000082015991 1 0.38269999623298645
v 0.707099974155426 0 0.707099974155426
v 0.9239000082015991 0 0.38269999623298645
v 0.707099974155426 1 0.707099974155426
v 0.38269999623298645 1 0.9239000082015991
v 0.38269999623298645 0 0.9239000082015991
v 0.707099974155426 1 0.707099974155426
v 0.38269999623298645 0 0.9239000082015991
v 0.707099974155426 0 0.707099974155426
v 0.38269999623298645 1 0.9239000082015991
v 0 1 1
v 0 0 1
v 0.38269999623298645 1 0.9239000082015991
v 0 0 1
v 0.38269999623298645 0 0.9239000082015991
v 0 1 1
v -0.38269999623298645 1 0.9239000082015991
v -0.38269999623298645 0 0.9239000082015991
v 0 1 1
v -0.38269999623298645 0 0.9239000082015991
v 0 0 1
v -0.38269999623298645 1 0.9239000082015991
v -0.707099974155426 1 0.707099974155426
v -0.707099974155426 0 0.707099974155426
v -0.38269999623298645 1 0.9239000082015991
v -0.707099974155426 0 0.707099974155426
v -0.38269999623298645 0 0.9239000082015991
v -0.707099974155426 1 0.707099974155426
v -0.9239000082015991 1 0.38269999623298645
v -0.9239000082015991 0 0.38269999623298645
v -0.707099974155426 1 0.707099974155426
v -0.9239000082015991 0 0.38269999623298645
v -0.707099974155426 0 0.707099974155426
v -0.9239000082015991 1 0.38269999623298645
v -1 1 0
v -1 0 0
v -0.9239000082015991 1 0.38269999623298645
v -1 0 0
v -0.9239000082015991 0 0.38269999623298645
v -1 1 0
v -0.9239000082015991 1 -0.38269999623298645
v -0.9239000082015991 0 -0.38269999623298645
v -1 1 0
v -0.9239000082015991 0 -0.38269999623298645
v -1 0 0
v -0.9239000082015991 1 -0.38269999623298645
v -0.707099974155426 1 -0.707099974155426
v -0.707099974155426 0 -0.707099974155426
v -0.9239000082015991 1 -0.38269999623298645
v -0.707099974155426 0 -0.707099974155426
v -0.9239000082015991 0 -0.38269999623298645
v -0.707099974155426 1 -0.707099974155426
v -0.38269999623298645 1 -0.9239000082015991
v -0.38269999623298645 0 -0.9239000082015991
v -0.707099974155426 1 -0.707099974155426
v -0.38269999623298645 0 -0.9239000082015991
v -0.707099974155426 0 -0.707099974155426
v -0.38269999623298645 1 -0.9239000082015991
v 0 1 -1
v 0 0 -1
v -0.38269999623298645 1 -0.9239000082015991
v 0 0 -1
v -0.38269999623298645 0 -0.9239000082015991
v 0 1 -1
v 0.38269999623298645 1 -0.9239000082015991
v 0.38269999623298645 0 -0.9239000082015991
v 0 1 -1
v 0.38269999623298645 0 -0.9239000082015991
v 0 0 -1
v 0.38269999623298645 1 -0.9239000082015991
v 0.707099974155426 1 -0.707099974155426
v 0.707099974155426 0 -0.707099974155426
v 0.38269999623298645 1 -0.9239000082015991
v 0.707099974155426 0 -0.707099974155426
v 0.38269999623298645 0 -0.9239000082015991
v 0.707099974155426 1 -0.707099974155426
v 0.9239000082015991 1 -0.38269999623298645
v 0.9239000082015991 0 -0.38269999623298645
v 0.707099974155426 1 -0.707099974155426
v 0.9239000082015991 0 -0.38269999623298645
v 0.707099974155426 0 -0.707099974155426
v 0.9239000082015991 1 -0.38269999623298645
v 1 1 0
v 1 0 0
v 0.9239000082015991 1 -0.38269999623298645
v 1 0 0
v 0.9239000082015991 0 -0.38269999623298645
vn 1 0 0
vn 0.923873485843048 0 0.3826980299873721
vn 0.923873485843048 0 0.3826980299873721
vn 1 0 0
vn 0.923873485843048 0 0.3826980299873721
vn 1 0 0
vn 0.923873485843048 0 0.3826980299873721
vn 0.7071067811865476 0 0.7071067811865476
vn 0.7071067811865476 0 0.7071067811865476
vn 0.923873485843048 0 0.3826980299873721
vn 0.7071067811865476 0 0.7071067811865476
vn 0.923873485843048 0 0.3826980299873721
vn 0.7071067811865476 0 0.7071067811865476
vn 0.3826980299873721 0 0.923873485843048
vn 0.3826980299873721 0 0.923873485843048
vn 0.7071067811865476 0 0.7071067811865476
vn 0.3826980299873721 0 0.923873485843048
vn 0.7071067811865476 0 0.7071067811865476
vn 0.3826980299873721 0 0.923873485843048
vn 0 0 1
vn 0 0 1
vn 0.3826980299873721 0 0.923873485843048
vn 0 0 1
vn 0.3826980299873721 0 0.923873485843048
vn 0 0 1
vn -0.3826980299873721 0 0.923873485843048
vn -0.3826980299873721 0 0.923873485843048
vn 0 0 1
vn -0.3826980299873721 0 0.923873485843048
vn 0 0 1
vn -0.3826980299873721 0 0.923873485843048
vn -0.7071067811865476 0 0.7071067811865476
vn -0.7071067811865476 0 0.7071067811865476
vn -0.3826980299873721 0 0.923873485843048
vn -0.7071067811865476 0 0.7071067811865476
vn -0.3826980299873721 0 0.923873485843048
vn -0.7071067811865476 0 0.7071067811865476
vn -0.923873485843048 0 0.3826980299873721
vn -0.923873485843048 0 0.3826980299873721
vn -0.7071067811865476 0 0.7071067811865476
vn -0.923873485843048 0 0.3826980299873721
vn -0.7071067811865476 0 0.7071067811865476
vn -0.923873485843048 0 0.3826980299873721
vn -1 0 0
vn -1 0 0
vn -0.923873485843048 0 0.3826980299873721
vn -1 0 0
vn -0.923873485843048 0 0.3826980299873721
vn -1 0 0
vn -0.923873485843048 0 -0.3826980299873721
vn -0.923873485843048 0 -0.3826980299873721
vn -1 0 0
vn -0.923873485843048 0 -0.3826980299873721
vn -1 0 0
vn -0.923873485843048 0 -0.3826980299873721
vn -0.7071067811865476 0 -0.7071067811865476
vn -0.7071067811865476 0 -0.7071067811865476
vn -0.923873485843048 0 -0.3826980299873721
vn -0.7071067811865476 0 -0.7071067811865476
vn -0.923873485843048 0 -0.3826980299873721
vn -0.7071067811865476 0 -0.7071067811865476
vn -0.3826980299873721 0 -0.923873485843048
vn -0.3826980299873721 0 -0.923873485843048
vn -0.7071067811865476 0 -0.7071067811865476
vn -0.3826980299873721 0 -0.923873485843048
vn -0.7071067811865476 0 -0.7071067811865476
vn -0.3826980299873721 0 -0.923873485843048
vn 0 0 -1
vn 0 0 -1
vn -0.3826980299873721 0 -0.923873485843048
vn 0 0 -1
vn -0.3826980299873721 0 -0.923873485843048
vn 0 0 -1
vn 0.3826980299873721 0 -0.923873485843048
vn 0.3826980299873721 0 -0.923873485843048
vn 0 0 -1
vn 0.3826980299873721 0 -0.923873485843048
vn 0 0 -1
vn 0.3826980299873721 0 -0.923873485843048
vn 0.7071067811865476 0 -0.7071067811865476
vn 0.7071067811865476 0 -0.7071067811865476
vn 0.3826980299873721 0 -0.923873485843048
vn 0.7071067811865476 0 -0.7071067811865476
vn 0.3826980299873721 0 -0.923873485843048
vn 0.7071067811865476 0 -0.7071067811865476
vn 0.923873485843048 0 -0.3826980299873721
vn 0.923873485843048 0 -0.3826980299873721
vn 0.7071067811865476 0 -0.7071067811865476
vn 0.923873485843048 0 -0.3826980299873721
vn 0.7071067811865476 0 -0.7071067811865476
vn 0.923873485843048 0 -0.3826980299873721
vn 1 0 0
vn 1 0 0
vn 0.923873485843048 0 -0.3826980299873721
vn 1 0 0
vn 0.923873485843048 0 -0.3826980299873721
f 1//1 2//2 3//3
f 4//4 5//5 6//6
f 7//7 8//8 9//9
f 10//10 11//11 12//12
f 13//13 14//14 15//15
f 16//16 17//17 18//18
f 19//19 20//20 21//21
f 22//22 23//23 24//24
f 25//25 26//26 27//27
f 28//28 29//29 30//30
f 31//31 32//32 33//33
f 34//34 35//35 36//36
f 37//37 38//38 39//39
f 40//40 41//41 42//42
f 43//43 44//44 45//45
f 46//46 47//47 48//48
f 49//49 50//50 51//51
f 52//52 53//53 54//54
f 55//55 56//56 57//57
f 58//58 59//59 60//60
f 61//61 62//62 63//63
f 64//64 65//65 66//66
f 67//67 68//68 69//69
f 70//70 71//71 72//72
f 73//73 74//74 75//75
f 76//76 77//77 78//78
f 79//79 80//80 81//81
f 82//82 83//83 84//84
f 85//85 86//86 87//87
f 88//88 89//89 90//90
f 91//91 92//92 93//93
f 94//94 95//95 96//96
o 
v 1 0 0
v 1 1 0
v 0.9239000082015991 0 0.38269999623298645
v 0.9239000082015991 1 0.38269999623298645
v 0.707099974155426 0 0.707099974155426
v 0.707099974155426 1 0.707099974155426
v 0.38269999623298645 0 0.9239000082015991
v 0.38269999623298645 1 0.9239000082015991
v 0 0 1
v 0 1 1
v -0.38269999623298645 0 0.9239000082015991
v -0.38269999623298645 1 0.9239000082015991
v -0.707099974155426 0 0.707099974155426
v -0.707099974155426 1 0.707099974155426
v -0.9239000082015991 0 0.38269999623298645
v -0.9239000082015991 1 0.38269999623298645
v -1 0 0
v -1 1 0
v -0.9239000082015991 0 -0.38269999623298645
v -0.9239000082015991 1 -0.38269999623298645
v -0.707099974155426 0 -0.707099974155426
v -0.707099974155426 1 -0.707099974155426
v -0.38269999623298645 0 -0.9239000082015991
v -0.38269999623298645 1 -0.9239000082015991
v 0 0 -1
v 0 1 -1
v 0.38269999623298645 0 -0.9239000082015991
v 0.38269999623298645 1 -0.9239000082015991
v 0.707099974155426 0 -0.707099974155426
v 0.707099974155426 1 -0.707099974155426
v 0.9239000082015991 0 -0.38269999623298645
v 0.9239000082015991 1 -0.38269999623298645
l 97 98
l 99 100
l 101 102
l 103 104
l 105 106
l 107 108
l 109 110
l 111 112
l 113 114
l 115 116
l 117 118
l 119 120
l 121 122
l 123 124
l 125 126
l 127 128
